<?xml version="1.0" encoding="utf-8"?>
<!-- Generator: Adobe Illustrator 22.0.0, SVG Export Plug-In . SVG Version: 6.00 Build 0)  -->
<svg version="1.1" id="Layer_1" xmlns="http://www.w3.org/2000/svg" xmlns:xlink="http://www.w3.org/1999/xlink" x="0px" y="0px"
	 viewBox="0 0 75 70" style="enable-background:new 0 0 75 70;" xml:space="preserve">
<style type="text/css">
	.st0{clip-path:url(#SVGID_2_);fill:url(#SVGID_3_);}
	.st1{clip-path:url(#SVGID_5_);fill:url(#SVGID_6_);}
	.st2{fill:#164A7F;}
	.st3{fill:#FFFFFF;}
	.st4{fill:#96A0A7;}
</style>
<g>
	<g>
		<defs>
			<path id="SVGID_1_" d="M34.3,42.4c-0.1,0-0.3-0.1-0.4-0.1C34,42.4,34.2,42.4,34.3,42.4 M26.1,38c-0.1-0.1-0.2-0.2-0.2-0.2
				C25.9,37.9,26,37.9,26.1,38 M21.7,30.1c0-0.1-0.1-0.3-0.1-0.4C21.7,29.8,21.7,30,21.7,30.1 M50,35.4c0,0.1,0,0.1,0,0.2
				C50,35.5,50,35.4,50,35.4c-4.3,4.9-11,7.8-15.7,7.1c0.4,0.1,0.8,0.2,1.1,0.2c1.4,0.1,1.5,0.1,2.6,0.1c1.3-0.1,1.3-0.1,2.1-0.2
				l0.4-0.1c3.1-0.6,6.7-2.6,9.2-5.5c0,0,0,0,0,0c0.6-0.7,1.2-1.4,1.6-2.1c0.2-0.5,0.5-1.1,0.7-1.5c0.5-1.2,0.5-1.3,0.8-2.2
				c0.3-1.2,0.4-1.5,0.5-2.4C53,30.8,52,33.1,50,35.4 M53.3,28.8c0-0.1,0-0.2,0-0.3C53.4,28.6,53.3,28.7,53.3,28.8 M48.2,31.3
				C48.2,31.3,48.2,31.3,48.2,31.3c-5.6,6.3-14.5,9.9-19.9,8c-0.9-0.3-1.7-0.8-2.3-1.3c0.2,0.2,0.5,0.5,0.8,0.7
				c1.2,1,1.4,1.1,2.6,1.8l0.9,0.5c0.3,0.1,0.5,0.2,0.8,0.3c5,1.7,13.3-1.6,18.5-7.5c0,0,0,0,0,0c1.8-2,3-4.1,3.5-6
				c-0.2-1-0.5-2.1-1.1-3.1C51.5,26.9,50.2,29.1,48.2,31.3 M22.6,20.4c0-0.1,0.1-0.2,0.2-0.4C22.7,20.1,22.7,20.3,22.6,20.4
				 M22.8,20C22.8,20,22.8,20,22.8,20C22.8,20,22.8,20,22.8,20L22.8,20z M22.8,19.9L22.8,19.9C22.9,19.9,22.9,19.9,22.8,19.9
				 M38.9,21.3C38.9,21.3,38.9,21.3,38.9,21.3c-3.9,4.4-10.2,7-14,5.7c-2.7-0.9-3.5-3.5-2.3-6.5c-0.3,0.8-0.4,1-0.6,1.8
				c-0.3,1.3-0.4,1.5-0.5,2.8l-0.1,1c-0.1,2.4,1,4.3,3.5,5.2c4.7,1.6,12.5-1.5,17.3-7c0,0,0,0,0,0c3-3.3,4.2-6.8,3.5-9.3
				c-1.2-0.5-2.6-0.9-4-1.1C42.3,15.8,41.3,18.6,38.9,21.3 M44.2,26.1L44.2,26.1c-5.3,5.9-13.7,9.3-18.8,7.6c-2-0.7-3.1-2-3.6-3.7
				c0.3,1.1,0.3,1.4,0.6,2c0.6,1.5,0.7,1.7,1.3,2.8c0.7,1.1,1.7,2,3.2,2.5c5.5,1.8,14.4-1.8,20-8.1c0,0,0,0,0,0
				c4.4-4.9,5.4-10.1,3-12.9c-0.4-0.4-0.9-1-1.3-1.4c-1.2-1-1.4-1.2-2.5-1.9l-0.6-0.3C49.3,15,49,20.7,44.2,26.1 M27,20.1
				c-1.8-0.6-1.7-2.7,0.1-4.8c1.8-2,4.7-3.2,6.5-2.6c1.8,0.6,1.7,2.7-0.1,4.7c0,0,0,0,0,0c-1.5,1.7-3.7,2.8-5.5,2.8
				C27.6,20.2,27.3,20.2,27,20.1 M25.6,15.8c-3.2,3.6-3.2,7.3-0.1,8.4c3.1,1,8.2-1,11.3-4.6c3.2-3.6,3.2-7.3,0.1-8.4
				c-0.5-0.2-1.2-0.3-1.8-0.3C32.1,11,28.2,12.9,25.6,15.8"/>
		</defs>
		<clipPath id="SVGID_2_">
			<use xlink:href="#SVGID_1_"  style="overflow:visible;"/>
		</clipPath>
		
			<radialGradient id="SVGID_3_" cx="18.6418" cy="8.6547" r="0.6207" gradientTransform="matrix(39.9938 0 0 -39.9938 -713.164 379.0086)" gradientUnits="userSpaceOnUse">
			<stop  offset="0" style="stop-color:#004161"/>
			<stop  offset="0.205" style="stop-color:#004161"/>
			<stop  offset="1" style="stop-color:#00283E"/>
		</radialGradient>
		<rect x="21.3" y="11" class="st0" width="32.1" height="32.2"/>
	</g>
	<g>
		<defs>
			<path id="SVGID_4_" d="M40,42.6c0,0,0.1,0,0.1,0l0.1,0C40.2,42.5,40.1,42.5,40,42.6 M40.3,42.5c0.1,0,0.2,0,0.2,0L40.3,42.5z
				 M30.3,41.1l-0.4-0.2C30,41,30.1,41,30.3,41.1 M28.6,38.8c0.5,0.2,1,0.4,1.6,0.6c0.5,1.3,1.5,2.2,3,2.7c0.2,0.1,0.5,0.1,0.7,0.2
				c0.5,0.1,1.1,0.2,1.6,0.3c1.1,0.1,1.3,0.1,2.6,0.1c0.8,0,0.9-0.1,1.9-0.2c-1.3,0.2-2.4,0.1-3.4-0.2c-1.2-0.4-2-1.2-2.4-2.2
				c0.6,0,1.2,0,1.8,0c-2.4-1.1-3.4-3.1-3.8-4C29.8,37.4,28.9,38.4,28.6,38.8 M23.6,34.9c-0.1-0.1-0.1-0.2-0.2-0.4
				C23.5,34.6,23.5,34.8,23.6,34.9 M42.2,40.1c-1.4-0.5-1.4-2.2,0.1-3.9c1.5-1.6,3.8-2.6,5.2-2.1c1.4,0.5,1.4,2.2-0.1,3.9
				c-1.2,1.4-3,2.2-4.4,2.2C42.7,40.2,42.4,40.2,42.2,40.1 M38.9,34.2c-2.9,3.2-2.9,6.6-0.1,7.6c2.8,0.9,7.4-0.9,10.3-4.2
				c0,0,0,0,0,0c2.9-3.2,2.9-6.6,0.1-7.6c-0.5-0.2-1-0.2-1.6-0.2C44.8,29.8,41.3,31.6,38.9,34.2 M21.4,26l0-0.4
				C21.4,25.7,21.4,25.8,21.4,26 M33.3,29.8c-1.1,1.3-2,2.5-2.6,3.8c1.2,0.8,2.5,1.4,3.9,2c0.5-1,1.1-2,2-3
				c3.7-4.2,9.6-6.6,13.2-5.4c2.8,0.9,3.4,3.7,1.8,6.9c0.1-0.3,0.3-0.5,0.4-0.8c0.4-0.9,0.4-1,0.8-2.2c0.3-1.1,0.3-1.3,0.5-2.6
				c0.3-2.6-0.8-4.6-3.3-5.5c-0.8-0.3-1.7-0.4-2.7-0.4C43,22.6,37.2,25.4,33.3,29.8 M24.8,19.3c0.1,0.3,0.2,0.7,0.3,1
				c-2.8,3.4-4,6.8-3.5,9.4c0.2,0.9,0.2,0.9,0.7,2.4c0.4,1.1,0.5,1.3,1.1,2.4c-1.4-2.9-0.3-7.2,3.2-11.4c0.2,0.2,0.3,0.5,0.5,0.7
				c0.1,0.2,0.3,0.4,0.4,0.6c1.3-3.9,3.1-6.6,4-7.9C27.9,17.4,25.8,18.6,24.8,19.3 M28.5,24.7C24,29.7,23.1,35,25.8,37.8
				c0.3,0.3,0.7,0.7,1,0.9c1,0.9,1.3,1,2.6,1.8l0.6,0.3c-3.8-2.2-3.3-7.8,1.4-13.1c5.2-5.8,13.4-9.2,18.5-7.5
				c0.9,0.3,1.6,0.7,2.2,1.3c0.1,0.5,0.1,1.1,0.1,1.6c0.8-0.2,0.9-0.1,1.1,0.1c-0.2-0.7-0.4-1.5-0.6-2.2c-0.3-0.7-0.7-1.6-1-2.3
				c-0.6-1-0.7-1.2-1.6-2.3c0.3,0.4,0.5,0.8,0.7,1.3c-0.6-0.6-1.3-1-2.3-1.3c-1-0.3-2-0.5-3.2-0.5C40,16.1,33.1,19.5,28.5,24.7
				 M49.8,16.3c-0.1-0.1-0.1-0.2-0.2-0.2C49.7,16.2,49.8,16.3,49.8,16.3 M35.1,13.1c0.7,0.6,1.4,1.4,2.1,2.4
				c3.6-1.4,7.1-1.8,9.8-0.9c1.1,0.4,1.9,0.9,2.6,1.6c-0.3-0.4-0.8-0.8-1.1-1.1c-1-0.9-1.2-1.1-2.5-1.9l-0.4-0.3
				c-0.4-0.2-0.8-0.4-1.2-0.5c-0.9-0.3-1.9-0.5-3-0.5C39.5,11.8,37.3,12.2,35.1,13.1 M36.9,10.6c-0.8,0-1.9,0.2-1.9,0.2
				c-3.4,0.5-6.8,2.1-9.5,5.1c-1,1.1-2.2,2.9-2.7,4L22.8,20c-0.4,0.9-0.4,1-0.8,2.2c-0.3,1.2-0.3,1.4-0.5,2.8l0,0.6
				c0.2-2.2,1.4-4.7,3.7-7.2c3.4-3.8,8.1-6.5,12.3-7.2c0.3,0.1,0.7,0.3,1,0.5c1.3-0.8,1.8-0.8,2.2-0.8l-1.1-0.2
				c-1-0.1-1.3-0.1-2.1-0.1C37.2,10.6,37.1,10.6,36.9,10.6"/>
		</defs>
		<clipPath id="SVGID_5_">
			<use xlink:href="#SVGID_4_"  style="overflow:visible;"/>
		</clipPath>
		
			<radialGradient id="SVGID_6_" cx="18.7778" cy="9.0537" r="0.6207" gradientTransform="matrix(41.4506 0 0 -41.4506 -745.9848 408.1529)" gradientUnits="userSpaceOnUse">
			<stop  offset="0" style="stop-color:#5F727B"/>
			<stop  offset="4.398830e-02" style="stop-color:#5F727B"/>
			<stop  offset="0.2088" style="stop-color:#75858D"/>
			<stop  offset="0.552" style="stop-color:#ADB7BB"/>
			<stop  offset="1" style="stop-color:#FFFFFF"/>
		</radialGradient>
		<rect x="21.1" y="10.6" class="st1" width="32.6" height="32.2"/>
	</g>
</g>
<g>
	<g>
		<g>
			<path class="st2" d="M72.7,54.3c0-1-0.8-1.9-1.9-1.9c-1,0-1.9,0.8-1.9,1.9c0,1,0.8,1.9,1.9,1.9C71.8,56.1,72.7,55.3,72.7,54.3"/>
		</g>
		<g>
			<path class="st3" d="M70.4,54h0.4c0.1,0,0.2,0,0.2-0.2v-0.5c0-0.2-0.1-0.2-0.2-0.2h-0.1c-0.1,0-0.2,0-0.2,0.2v0.2h-0.3v-0.2
				c0-0.5,0.1-0.6,0.6-0.6h0.1c0.4,0,0.6,0.1,0.6,0.6v0.3c0,0.3-0.1,0.4-0.2,0.4c0.2,0,0.2,0.1,0.2,0.4V55c0,0.5-0.2,0.6-0.6,0.6
				h-0.1c-0.5,0-0.6-0.1-0.6-0.6v-0.2h0.4V55c0,0.2,0.1,0.2,0.2,0.2h0.1c0.1,0,0.2,0,0.2-0.2v-0.5c0-0.2-0.1-0.2-0.2-0.2h-0.4V54z"
				/>
		</g>
	</g>
	<g>
		<path class="st4" d="M2.1,52.8h2.6c1.5,0,2.5,0.9,2.5,2.2v0c0,1.5-1.2,2.2-2.6,2.2H3.3v2.1H2.1V52.8z M4.6,56.2
			c0.9,0,1.4-0.5,1.4-1.2v0c0-0.8-0.6-1.2-1.4-1.2H3.3v2.4H4.6z"/>
		<path class="st4" d="M8.3,52.8h4.9v1H9.5v1.7h3.3v1H9.5v1.8h3.8v1H8.3V52.8z"/>
		<path class="st4" d="M14.3,58h1.2v1.3h-1.2V58z"/>
	</g>
	<g>
		<path class="st2" d="M19.3,52.7h1.1l2.9,6.6H22l-0.7-1.6h-3.1l-0.7,1.6h-1.2L19.3,52.7z M20.9,56.7l-1.1-2.6l-1.1,2.6H20.9z"/>
		<path class="st2" d="M24.3,52.8h1.1l3.5,4.5v-4.5H30v6.6h-1l-3.6-4.7v4.7h-1.1V52.8z"/>
		<path class="st2" d="M33.9,52.7H35l2.9,6.6h-1.2L36,57.7h-3.1l-0.7,1.6h-1.2L33.9,52.7z M35.6,56.7l-1.1-2.6l-1.1,2.6H35.6z"/>
		<path class="st2" d="M38.9,52.8h1.2v5.5h3.5v1.1h-4.6V52.8z"/>
		<path class="st2" d="M45.4,56.7l-2.6-4h1.4l1.8,2.9l1.9-2.9h1.3l-2.6,4v2.6h-1.2V56.7z"/>
		<path class="st2" d="M49.8,58.5l3.9-4.7h-3.8v-1h5.3v0.9l-3.9,4.7h3.9v1h-5.4V58.5z"/>
		<path class="st2" d="M56.5,52.8h4.9v1h-3.7v1.7H61v1h-3.3v1.8h3.8v1h-4.9V52.8z"/>
		<path class="st2" d="M62.7,52.8h2.9c0.8,0,1.5,0.2,1.9,0.7c0.3,0.4,0.5,0.8,0.5,1.4v0c0,1.1-0.6,1.7-1.6,2l1.8,2.5h-1.4L65.3,57
			h-1.4v2.3h-1.2V52.8z M65.6,56c0.8,0,1.4-0.4,1.4-1.1v0c0-0.7-0.5-1.1-1.4-1.1h-1.7V56H65.6z"/>
	</g>
</g>
</svg>
